<svg width="48" height="49" viewBox="0 0 48 49" fill="none" xmlns="http://www.w3.org/2000/svg">
<path d="M35.5778 42.4166C36.0989 42.9268 33.6239 42.6292 32.3214 42.4166C34.2745 44.9668 30.3697 43.0552 29.0661 42.417L29.0651 42.4165C28.023 41.9064 26.4599 42.6291 25.8086 43.0542V41.7788C25.8086 41.1411 23.2034 42.4166 22.5521 42.4165C21.9008 42.4164 23.8547 41.7788 24.506 41.1411C25.1573 40.5034 24.506 37.315 23.2034 37.315C21.9008 37.315 15.3878 34.1265 15.3878 31.5758C15.3878 29.5353 14.5194 28.5999 14.0852 28.3873C9.52616 24.5611 8.87487 22.0104 8.22357 22.0104C7.57227 22.0104 7.57227 20.735 8.22357 20.0973C8.87487 19.4596 8.22357 19.4596 6.92098 19.4596C5.61838 19.4596 6.92098 17.5465 6.92098 16.9088C6.92098 16.2711 6.92076 16.2711 6.26972 16.2711C5.61867 16.2711 6.26947 14.9957 6.92076 14.9957C7.57206 14.9957 6.26947 13.7204 6.92076 13.7204C7.57206 13.7204 6.92076 13.0827 6.92076 12.445C6.92076 11.8073 9.52595 7.98112 10.8285 11.1696C11.8706 13.7204 16.0389 15.6334 17.9928 16.2711C25.8084 17.8016 28.6307 16.9088 29.0649 16.2711C32.1911 9.63904 35.1436 8.83134 36.2291 9.2565C36.012 8.83138 35.7081 7.85358 36.2291 7.34343C36.8804 6.70573 37.5317 7.34343 38.183 7.34343C38.8343 7.34343 38.183 6.70573 38.8343 6.70573C39.4856 6.70573 40.7882 9.2565 40.1369 9.2565C39.4856 9.2565 39.4856 9.8942 40.1369 10.5319C40.7882 11.1696 41.0372 13.0343 40.7882 12.4451C40.5188 11.8073 40.1369 12.4451 39.4856 13.0828C38.8343 13.7204 38.183 14.3581 40.1369 16.2712C41.7 17.8017 40.7882 22.4356 40.1369 24.5612C40.1369 29.6628 36.2291 31.5758 34.9265 31.5758C33.6239 31.5758 30.3675 32.8512 30.3675 34.7643C30.3675 36.6774 27.7623 37.3151 27.7623 37.9528C27.7623 38.5905 28.4136 39.2281 29.7162 40.5035C31.0188 41.7789 34.9265 41.7789 35.5778 42.4166Z" fill="#EC008C"/>
</svg>
