<svg width="71" height="358" viewBox="0 0 71 358" fill="none" xmlns="http://www.w3.org/2000/svg">
<g clip-path="url(#clip0_38_127)">
<path d="M0 -27V358L35.5 336.827L71 358V-27H0Z" fill="#EC008C"/>
<path d="M19.3645 316.953V288.39H23.5351V308.664H32.8694V289.439H37.04V308.664H47.5659V287.841H51.7365V317.003H19.3645V316.953ZM47.6156 266.269V266.419C49.3037 267.468 52.3323 270.214 52.3323 276.406C52.3323 281.35 50.0981 285.544 44.9344 285.544H29.3939V277.654H42.2037C46.7715 277.654 47.4169 276.955 47.4169 274.209C47.4169 268.966 42.6505 266.269 39.0757 266.269H29.3939V258.379H51.7862V266.269H47.6156ZM19.3645 253.785V245.896H37.9834L29.4435 234.96V225.522L39.1253 238.006L51.8358 224.374V233.811L40.5652 245.696V245.846H51.8358V253.735H19.3645V253.785ZM49.2044 207.346V207.495C50.6442 208.544 52.2827 210.891 52.2827 216.284C52.2827 221.977 50.0484 226.221 46.4239 226.221C38.9764 226.221 38.9267 212.04 38.8274 207.346H36.6428C34.4582 207.346 32.5715 208.195 32.5715 212.09C32.5715 216.434 34.5079 217.283 35.9974 217.283V224.973C31.7274 224.973 28.8974 220.728 28.8974 212.139C28.8974 203.75 31.2806 199.855 35.8484 199.855H51.7862V207.346H49.2044ZM48.6086 214.387C48.6086 209.293 44.9344 207.346 41.9058 207.346C41.9058 212.439 42.9484 218.531 45.9274 218.531C47.7148 218.581 48.6086 217.083 48.6086 214.387ZM29.3939 195.361V187.471H33.5645V187.322C31.8764 186.223 28.8477 183.577 28.8477 177.335C28.8477 172.391 31.082 168.197 36.196 168.197H51.7365V176.086H39.026C34.4582 176.086 33.8128 176.785 33.8128 179.532C33.8128 184.825 38.6288 187.471 42.154 187.471H51.8358V195.361H29.3939ZM47.6156 144.328V144.477C49.3037 145.526 52.3323 148.322 52.3323 154.464C52.3323 159.408 50.0981 163.602 44.9344 163.602H29.3939V155.763H42.2037C46.7715 155.763 47.4169 155.064 47.4169 152.267C47.4169 147.024 42.6505 144.328 39.0757 144.328H29.3939V136.438H51.7862V144.328H47.6156ZM32.075 124.553V124.403C30.933 123.355 28.8974 120.858 28.8974 115.665C28.8974 107.575 33.4652 104.03 40.6149 104.03C46.8708 104.03 52.3323 107.276 52.3323 118.261C52.3323 127.15 49.0058 132.393 42.303 132.393H19.3645V124.503H32.075V124.553ZM48.6086 118.311C48.6086 113.268 44.2393 112.419 40.5652 112.419C36.5435 112.419 32.1743 113.068 32.1743 118.311C32.1743 123.055 36.7918 124.553 40.5652 124.553C46.1757 124.553 48.6086 123.305 48.6086 118.311ZM49.2044 84.0558V84.2056C50.6442 85.2542 52.2827 87.6012 52.2827 92.9942C52.2827 98.6868 50.0484 102.931 46.4239 102.931C38.9764 102.931 38.9267 88.7497 38.8274 84.0558H36.6428C34.4582 84.0558 32.5715 84.9047 32.5715 88.7996C32.5715 93.144 34.5079 93.9929 35.9974 93.9929V101.633C31.7274 101.633 28.8974 97.3885 28.8974 88.7996C28.8974 80.4105 31.2806 76.5156 35.8484 76.5156H51.7862V84.0058H49.2044V84.0558ZM48.6086 91.0966C48.6086 86.0032 44.9344 84.0558 41.9058 84.0558C41.9058 89.1492 42.9484 95.2412 45.9274 95.2412C47.7148 95.2912 48.6086 93.7931 48.6086 91.0966Z" fill="white"/>
<path d="M29.6908 72.3218V73.77H28.946V70.0745H29.6908V71.5227H33.5139V72.3218H29.6908Z" fill="white"/>
<path d="M28.946 68.8759V68.0269L31.081 66.6286L28.946 65.2303V64.3813H33.5139V65.1803H30.237L32.4216 66.6286V66.6785L30.237 68.0769H33.5139V68.8759H28.946Z" fill="white"/>
</g>
<defs>
<clipPath id="clip0_38_127">
<rect width="71" height="385" fill="white" transform="translate(0 -27)"/>
</clipPath>
</defs>
</svg>
