<svg width="90" height="91" viewBox="0 0 90 91" fill="none" xmlns="http://www.w3.org/2000/svg">
<path d="M45 0.997925L64.62 12.0151L83.9711 23.4979L84.24 45.9979L83.9711 68.4979L64.62 79.9808L45 90.9979L25.38 79.9808L6.02886 68.4979L5.76 45.9979L6.02886 23.4979L25.38 12.0151L45 0.997925Z" fill="#EC008C"/>
<path fill-rule="evenodd" clip-rule="evenodd" d="M35.895 16.3688C35.7542 16.6401 35.8918 17.4483 36.3956 19.3097C37.7724 24.3953 37.6416 24.0434 38.157 24.0434C39.1612 24.0434 39.162 23.6843 38.1664 19.9829C37.6526 18.073 37.1408 16.3946 37.0293 16.2526C36.7324 15.8749 36.1187 15.9378 35.895 16.3688ZM44.3781 16.202C44.189 16.5174 43.6146 23.5743 43.7486 23.9347C43.9347 24.4347 44.8601 24.3293 45.0566 23.7854C45.2831 23.158 45.7613 16.719 45.611 16.3155C45.4788 15.9597 44.5732 15.8763 44.3781 16.202ZM52.3529 19.5447C52.2459 19.6921 51.6414 20.9549 51.0096 22.3513C49.7996 25.0245 49.7116 25.6945 50.5704 25.6945C51.1778 25.6945 51.2348 25.6076 52.587 22.621C53.4656 20.6805 53.6963 19.9835 53.5432 19.7317C53.2843 19.3055 52.6038 19.1986 52.3529 19.5447ZM28.81 19.7412C28.6239 19.8485 28.4718 20.1042 28.4718 20.3096C28.4718 20.8637 32.4021 25.9008 32.8345 25.9008C33.2455 25.9008 33.6741 25.5221 33.6741 25.1591C33.6741 24.8289 29.8026 19.8052 29.4364 19.6601C29.2778 19.5974 28.9958 19.6339 28.81 19.7412ZM23.3838 25.8123C23.0323 26.1751 23.0079 26.307 23.227 26.6622C23.3828 26.915 27.8361 29.6157 28.0971 29.6157C28.2873 29.6157 28.872 29.0116 28.872 28.8149C28.872 28.7311 28.7595 28.5212 28.6219 28.3483C28.3432 27.9981 24.1904 25.4881 23.8896 25.4881C23.7844 25.4881 23.5569 25.634 23.3838 25.8123ZM56.784 27.0442C55.4517 27.9979 55.1834 28.2835 55.1834 28.7481C55.1834 29.7321 55.9315 29.5919 57.8215 28.254C59.2733 27.2264 59.4964 26.9899 59.445 26.5334C59.3412 25.6134 58.5784 25.7599 56.784 27.0442ZM40.1769 28.6325C38.9053 28.8494 38.1784 28.8746 36.0645 28.7755C34.2759 28.6915 33.2953 29.2149 31.0005 31.4781C27.9588 34.4776 23.2111 39.8738 22.5102 41.1282C21.3543 43.1965 21.828 44.5366 24.2128 45.9447L25.2562 46.5607L24.8919 47.5301C24.6916 48.0632 24.1906 49.404 23.7786 50.5098C23.244 51.9448 22.7025 52.9488 21.8866 54.0183C21.2579 54.8421 19.4511 57.2768 17.8716 59.4285L15 63.3407L16.9558 65.2623C22.0707 70.2872 29.1435 73.715 36.4753 74.7225C38.667 75.0237 43.9081 75.1 44.5486 74.8402C44.7519 74.7576 45.1926 74.0444 45.528 73.2552C46.1132 71.878 46.1441 71.6588 46.2927 67.796C46.3778 65.5826 46.5852 63.0969 46.7535 62.2722C47.1313 60.4212 48.0377 58.6261 49.1425 57.5406C49.9597 56.7377 50.0423 56.7078 52.3821 56.3619C53.7027 56.1667 56.584 55.6058 58.7849 55.1156C60.9859 54.6254 63.4619 54.1169 64.2873 53.9855C66.5265 53.629 68.8054 52.4182 70.4712 50.6999C72.8416 48.2547 73.7918 45.8605 73.9571 41.9168C74.0463 39.7875 74.0273 39.6433 73.5967 39.1994C72.9298 38.5113 71.9932 38.308 67.9601 37.9753C64.0896 37.6563 63.689 37.5853 60.5857 36.6679L58.5848 36.0764L57.8845 34.7098C57.4994 33.9579 56.9221 33.0641 56.602 32.7234C55.3282 31.3681 50.4637 29.2475 47.3402 28.6855C45.4379 28.3433 42.0203 28.3182 40.1769 28.6325Z" fill="white"/>
</svg>
