<svg width="90" height="91" viewBox="0 0 90 91" fill="none" xmlns="http://www.w3.org/2000/svg">
<path d="M45 0.997925L64.62 12.0151L83.9711 23.4979L84.24 45.9979L83.9711 68.4979L64.62 79.9808L45 90.9979L25.38 79.9808L6.02886 68.4979L5.76 45.9979L6.02886 23.4979L25.38 12.0151L45 0.997925Z" fill="#EC008C"/>
<path d="M25.1749 20.5315C25.6916 18.4747 26.9436 17.4688 28.8605 16.5162C29.4246 16.2359 29.9139 16.0027 29.9478 15.9979C29.9816 15.9933 31.9381 16.9058 34.2955 18.0259C39.5727 20.5331 40.0964 20.7066 42.3742 20.7032C43.9277 20.7009 44.2439 20.6441 45.097 20.2138C46.6755 19.4177 47.5439 19.6024 48.1086 20.8547C48.5724 21.8832 48.7256 22.9664 48.5733 24.1391C48.4547 25.0529 48.3463 25.2346 47.2836 26.3028C45.8816 27.7121 45.7044 28.0189 45.7044 29.0357C45.7044 29.6941 45.8709 30.0655 46.7095 31.2777C47.9733 33.1047 48.2234 33.7873 47.9506 34.6636C47.6806 35.5302 46.6163 36.7008 45.5501 37.3038C44.7949 37.7309 44.5016 37.7902 43.2068 37.7785C41.5411 37.7632 40.2722 37.3187 38.6759 36.1914C37.3453 35.2519 37.1331 34.6779 37.2913 32.4462C37.4138 30.7171 37.3955 30.5626 36.9962 29.9409C36.5801 29.2933 26.8696 23.8897 26.8696 23.8897C26.8696 23.8897 25.0729 23.0587 25.0055 22.0484C24.9827 21.7069 25.0296 21.1099 25.1749 20.5315Z" fill="white"/>
<path d="M56.7381 30.4453C56.3671 28.8084 56.0639 27.3691 56.0643 27.2467C56.0647 27.1244 56.1148 27.0242 56.1758 27.0242C56.3185 27.0242 62.2204 28.8236 62.3918 28.9193C62.4628 28.9592 62.1507 29.32 61.698 29.7213C61.2454 30.1228 60.8751 30.5169 60.8751 30.597C60.8751 30.6772 61.2841 31.2628 61.784 31.8982C63.0152 33.463 63.0933 33.7513 62.4251 34.2657C62.1322 34.4912 61.8417 34.6759 61.7796 34.6764C61.7174 34.677 61.323 34.1769 60.903 33.565C59.6005 31.6675 59.4775 31.5721 59.0192 32.1034C58.8894 32.254 58.4746 32.6121 58.0977 32.8993L57.4123 33.4215L56.7381 30.4453Z" fill="white"/>
<path d="M62.6226 36.8868C62.5325 36.5821 62.6399 36.4671 63.2202 36.2462C63.6093 36.098 63.9834 36.0248 64.0517 36.0836C64.3175 36.3124 64.776 38.4021 64.8851 39.8833L65 41.4406H64.1401H63.2802V40.5623C63.2802 39.7987 62.9684 38.0567 62.6226 36.8868Z" fill="white"/>
<path d="M32.7538 39.3819C32.7538 38.6604 33.3107 37.6968 33.9416 37.3268C34.901 36.7638 35.0823 36.8145 37.7255 38.3847C39.1484 39.2299 41.3349 40.0168 42.2606 40.0168C43.2652 40.0168 44.9149 39.5168 47.0279 38.5723C48.6593 37.8429 49.1725 37.6882 49.6661 37.7774C50.6632 37.9573 51.2855 38.8622 51.2855 40.1321C51.2855 41.2003 49.2075 42.6713 49.2075 42.6713C49.2075 42.6713 48.279 43.5352 47.479 44.0331C46.9961 44.3335 46.189 44.7106 46.189 44.7106C46.189 44.7106 41.1182 47.726 39.4209 50.7214L38.6792 52.0304L38.673 50.6956C38.6672 49.4561 38.4604 47.5991 38.1873 46.3351C38.1083 45.9695 37.3218 45.0659 35.6921 43.4683C33.364 41.1864 32.7538 40.338 32.7538 39.3819Z" fill="white"/>
<path d="M62.9126 44.7325C63.031 44.2434 63.1568 43.7504 63.1919 43.6369C63.2393 43.4836 63.4548 43.4788 64.025 43.6182L64.7943 43.806L64.6681 44.6147C64.5382 45.4476 63.805 47.561 63.3453 48.4267C63.0876 48.9122 63.0792 48.9142 62.406 48.6435C62.0323 48.4932 61.7041 48.3487 61.6765 48.3222C61.6489 48.2957 61.8673 47.6772 62.1616 46.9478C62.456 46.2187 62.794 45.2216 62.9126 44.7325Z" fill="white"/>
<path d="M45.5157 47.8385C45.5194 46.8551 45.5234 46.8482 46.3057 46.4701C46.738 46.2612 47.1339 46.0852 47.1852 46.0791C47.3254 46.0626 48.4394 51.4329 48.6967 53.3653C49.0279 55.854 48.9775 60.4049 48.5962 62.4423C47.9095 66.1101 46.1312 70.1704 43.9018 73.1608C42.4423 75.1182 42.4131 75.1382 41.3689 74.8852C40.6895 74.7208 40.5286 74.6136 40.6207 74.3878C42.1535 70.629 43.0227 65.7036 42.2605 65.0951C42.0048 64.8908 41.9132 64.9142 41.6235 65.2585C40.8542 66.1726 39.9721 69.2198 39.5397 72.4571C39.3989 73.5112 39.248 74.4081 39.2041 74.4503C39.1605 74.4923 38.7734 74.441 38.3444 74.3362L37.564 74.1457L37.5601 72.521C37.5581 71.6275 37.3916 69.9353 37.1903 68.7606C36.777 66.3504 36.7002 62.4524 37.0212 60.1858C37.466 57.0454 38.524 54.1665 40.0391 51.974C41.0679 50.4852 43.8813 47.7541 44.056 48.0746C44.1214 48.1946 44.2276 49.1066 44.292 50.1013C44.3564 51.0959 44.4765 52.0852 44.5592 52.3001C44.695 52.6534 44.7296 52.6251 44.924 52.0005C45.2235 51.0389 45.5114 49.0145 45.5157 47.8385Z" fill="white"/>
<path d="M58.4437 52.1167L59.5206 50.9757L60.5975 49.8347L61.1424 50.2359C61.4421 50.4565 61.717 50.723 61.7535 50.8278C61.7897 50.9328 61.3198 51.5324 60.7089 52.1605L59.5985 53.3026L60.4438 54.2324C60.9087 54.7437 61.2584 55.1853 61.2208 55.2138C61.0817 55.3193 54.735 56.5949 54.6684 56.5307C54.6303 56.494 55.0634 55.0668 55.631 53.3589L56.6628 50.2536L57.5532 51.1852L58.4437 52.1167Z" fill="white"/>
</svg>
