<svg width="90" height="91" viewBox="0 0 90 91" fill="none" xmlns="http://www.w3.org/2000/svg">
<path d="M45 0.998047L64.62 12.0152L83.9711 23.498L84.24 45.998L83.9711 68.498L64.62 79.9809L45 90.998L25.38 79.9809L6.02886 68.498L5.76 45.998L6.02886 23.498L25.38 12.0152L45 0.998047Z" fill="#EC008C"/>
<path fill-rule="evenodd" clip-rule="evenodd" d="M27.4372 27.1369C26.9622 27.3884 26.2289 28.2707 26.431 28.3477C26.4676 28.3617 29.9296 29.5434 34.1243 30.9738C38.3189 32.4042 43.2502 34.0865 45.0827 34.7123L48.4145 35.8502L49.0131 35.6942C49.9043 35.462 50.8496 35.1487 50.8004 35.1018C50.7101 35.0158 47.4134 33.8178 44.0936 32.6647C43.6068 32.4956 42.4472 32.0906 41.5166 31.7647C35.6002 29.6924 27.7904 26.993 27.7263 26.9981C27.7091 26.9994 27.579 27.0619 27.4372 27.1369ZM66.4008 29.4095C65.8929 29.5269 65.0147 29.7819 64.0949 30.0791C62.566 30.5732 62.1964 30.7584 62.0839 31.0866C61.9922 31.3544 62.0163 31.4722 62.2621 31.9584C62.3909 32.2131 62.4787 32.4378 62.4573 32.4576C62.3856 32.5239 61.0988 33.1885 60.4545 33.4919C59.5923 33.898 59.3551 33.9747 58.5944 34.0936C56.6438 34.3984 54.4456 35.0201 52.1627 35.9126C49.3933 36.9952 47.7424 37.3614 43.9894 37.7257C42.1438 37.9048 41.2374 38.0255 40.0121 38.2557C37.589 38.7106 35.6336 39.3514 32.2501 40.7994C29.073 42.159 27.2413 42.8681 26.1829 43.1481C24.9337 43.4785 24.3828 43.5489 23.0357 43.5501C21.9513 43.5511 21.7503 43.5375 21.2662 43.4298C19.3277 42.9987 17.9557 42.0685 16.9153 40.4799C16.4618 39.7875 16.2076 39.2496 15.8767 38.2818C15.5272 37.2596 15.4172 37.0631 15.1946 37.0631C15.0261 37.0631 14.9665 37.211 14.9667 37.6292C14.9673 38.9994 15.6756 40.9685 16.6143 42.2103C17.0199 42.7468 17.211 42.9491 17.7372 43.3986C18.656 44.1836 19.8164 44.746 21.1616 45.0581C22.9573 45.4747 25.4229 45.5287 27.1894 45.1902C27.8871 45.0565 28.8799 44.9103 29.1136 44.9069C29.178 44.9059 29.2303 44.935 29.2298 44.9714C29.2293 45.0078 28.9921 45.2522 28.7028 45.5145C28.1944 45.9753 27.7504 46.4561 27.5285 46.7862C27.4698 46.8736 27.2403 47.279 27.0186 47.687C26.4 48.8256 26.0933 49.1658 25.3263 49.5647C24.5598 49.9632 23.9193 50.156 21.9844 50.5704C19.381 51.128 18.6764 51.4307 17.2386 52.6093C16.9277 52.8642 16.4592 53.235 16.1974 53.4335C15.9356 53.632 15.5574 53.9298 15.357 54.0954C14.9082 54.466 14.316 54.7645 13.6651 54.9481C12.4465 55.2919 12.211 55.3958 11.8313 55.7573C11.3698 56.1967 11.1595 56.6892 11.0434 57.6024C10.9557 58.2934 10.9887 58.4369 11.2558 58.5267C11.531 58.6191 12.0772 58.56 12.4294 58.3997C12.6608 58.2943 12.8692 58.1199 13.3404 57.6372C13.8006 57.1657 14.0477 56.9577 14.3419 56.7938C14.5566 56.6742 15.1305 56.348 15.6173 56.069C16.104 55.7899 16.6546 55.4896 16.8407 55.4014C17.2037 55.2295 17.8191 55.0501 17.8696 55.1014C17.9459 55.1792 17.545 55.4822 17.0011 55.7578C15.7923 56.3702 15.5357 56.877 15.6498 58.4267C15.7024 59.1402 15.7705 59.3757 15.9528 59.475C16.116 59.5639 16.2334 59.54 16.6385 59.3351C17.1714 59.0657 17.5668 58.6393 17.9336 57.9382C18.3267 57.1872 18.5749 56.8731 19.5031 55.9529C21.1074 54.3626 21.443 54.2965 24.6235 54.9442C26.2636 55.2782 26.5745 55.3159 27.695 55.3165C28.5923 55.317 28.8152 55.2999 29.3088 55.1925C30.3489 54.9662 31.3433 54.5237 32.4314 53.8027C33.1096 53.3534 33.2637 53.235 34.9051 51.9008C36.3213 50.7498 36.7034 50.4578 37.3519 50.031C38.8446 49.0487 39.8183 48.7669 41.4385 48.8485C42.0904 48.8813 43.614 49.0426 45.4731 49.2756C46.7441 49.4349 47.3834 49.5092 48.1802 49.5902C50.6032 49.8364 50.9297 49.8559 52.6312 49.8567C54.4671 49.8576 54.89 49.8191 56.0931 49.542C56.8499 49.3678 57.1647 49.345 57.9155 49.4103C59.4073 49.54 60.7615 50.0103 61.9233 50.8023C62.4657 51.1719 62.7356 51.4026 63.4855 52.1374C64.3917 53.0253 64.7344 53.1914 66.9735 53.8268C68.4729 54.2524 69.0299 54.4426 69.3883 54.6513C69.7869 54.8835 70.3888 55.3793 71.0448 56.0163C71.3597 56.322 71.6951 56.6053 71.7901 56.6457C71.8851 56.6861 72.3102 56.7798 72.7348 56.8541C73.4302 56.9756 73.5715 57.0199 74.1576 57.2995C75.1574 57.7765 75.4032 57.8516 75.9818 57.8563C76.4564 57.8603 76.4963 57.8515 76.8833 57.6571C77.3298 57.4329 77.4889 57.2441 77.4892 56.9382C77.4893 56.7952 77.4443 56.7141 77.2716 56.547C76.864 56.1523 75.8856 55.7711 75.2733 55.7684C74.8413 55.7665 74.0995 55.4572 73.1685 54.8906C72.431 54.4419 72.4258 54.4299 72.9863 54.4699C73.6783 54.5193 73.9606 54.587 74.6522 54.8698C76.0451 55.4393 76.852 55.4149 77.5398 54.7824C77.9275 54.426 77.8692 54.0765 77.3671 53.7461C76.9044 53.4418 76.329 53.2733 75.6639 53.2474C75.2573 53.2316 75.0061 53.1903 74.7008 53.0891C73.736 52.7692 71.9627 51.7701 71.2797 51.1619C70.737 50.6785 69.5031 49.8904 67.3379 48.6442C66.9579 48.4255 66.8702 48.3475 66.7173 48.0913C66.0409 46.9583 65.1816 45.7392 64.7383 45.2838C64.3948 44.9309 64.2109 44.5904 64.0163 43.9471C63.9175 43.6206 63.9155 43.5712 63.9843 43.1677C64.133 42.2953 64.5765 41.3168 64.9316 41.0777C65.4848 40.705 66.4133 40.3255 68.2496 39.7216L69.3956 39.3447L69.8869 39.4471C70.6207 39.6002 73.3076 39.8397 74.2878 39.8394C75.8761 39.839 77.6611 38.4364 77.9679 36.9477C78.0719 36.443 77.926 36.0984 77.4895 35.818C77.3846 35.7506 76.9229 35.552 76.4634 35.3765C75.3767 34.9617 74.861 34.6871 73.9179 34.0209C73.8576 33.9783 73.7545 33.793 73.6887 33.609C73.4925 33.0602 73.1112 32.3448 72.8624 32.0588C72.0658 31.143 70.2748 30.2992 68.8621 30.1744L68.382 30.1319L68.1212 29.8593C67.6706 29.3885 67.1176 29.244 66.4008 29.4095ZM25.0783 31.0096C24.9719 31.1516 24.9392 31.2564 24.9377 31.4589L24.9359 31.7229L26.7059 32.1378C27.6794 32.366 28.8273 32.6371 29.2567 32.7404C29.6862 32.8436 32.0289 33.394 34.4626 33.9635C36.8964 34.533 39.3445 35.1072 39.9028 35.2395C40.4611 35.3719 41.0585 35.5135 41.2303 35.5543C41.4021 35.595 41.9643 35.7263 42.4797 35.846C42.9951 35.9658 43.8047 36.1574 44.2787 36.272C45.231 36.5021 45.427 36.5156 46.1499 36.4016C46.7548 36.3062 46.9877 36.2408 46.8787 36.197C46.8358 36.1796 46.0275 35.9749 45.0827 35.7419C44.1378 35.5089 42.4979 35.1029 41.4385 34.8398C36.7564 33.6768 37.0309 33.7448 32.7707 32.6949C31.0385 32.2681 29.4923 31.8842 29.3348 31.8419C29.0121 31.7552 26.5614 31.1471 25.7489 30.9521L25.2171 30.8245L25.0783 31.0096ZM45.9677 51.253C45.2519 51.6263 44.0337 52.2613 43.2606 52.6642C42.4875 53.0672 41.6442 53.5099 41.3865 53.6482C41.1288 53.7865 40.3557 54.1921 39.6685 54.5496C38.9814 54.9071 37.6109 55.6221 36.6231 56.1385C34.5697 57.2121 32.9558 58.0556 31.0528 59.0497C30.3227 59.4311 29.5321 59.8441 29.2961 59.9675C28.965 60.1405 28.8667 60.2173 28.8666 60.3032C28.8663 60.4468 29.1474 60.842 29.3003 60.9129C29.4239 60.9702 29.1112 61.134 36.4409 57.1725C37.1853 56.7702 38.8955 55.8453 40.2412 55.1172C41.5869 54.3891 42.8988 53.6799 43.1565 53.5413C45.273 52.4029 48.3717 50.7125 48.4118 50.6745C48.4407 50.6472 48.2567 50.6274 47.9693 50.627C47.6988 50.6266 47.4305 50.6146 47.3733 50.6003C47.3065 50.5837 46.802 50.818 45.9677 51.253ZM52.1367 50.7456C51.9219 50.7691 51.3245 50.782 50.8092 50.7743L49.8721 50.7602L42.5838 55.7112C38.5753 58.4342 34.505 61.1982 33.5386 61.8533C32.5722 62.5085 31.7816 63.0743 31.7816 63.1106C31.7816 63.2077 32.2869 63.6047 32.5972 63.7512C32.7452 63.8211 32.9925 63.9052 33.1469 63.9382L33.4275 63.998L34.8561 63.0176C35.6418 62.4783 37.3389 61.3137 38.6274 60.4296C39.9158 59.5455 41.3214 58.58 41.7509 58.2841C42.1804 57.9882 43.34 57.1896 44.3278 56.5095C46.0283 55.3386 47.8821 54.0538 48.5706 53.5689C48.7424 53.4479 49.3398 53.0311 49.8981 52.6425C50.71 52.0776 52.4476 50.8384 52.5488 50.7522C52.6015 50.7073 52.5014 50.7057 52.1367 50.7456Z" fill="white"/>
</svg>
